<?xml version="1.0" encoding="UTF-8"?>
<svg id="Layer_2" xmlns="http://www.w3.org/2000/svg" viewBox="0 0 136 33.88">
<path d="M5.36,33.1c-1.07,.43-1.66,.35-2.25-.08-.49-.34-.91-.69-1.42-1.3-.48-.57-.69-1.07-.57-1.93,.56-4.08,2.34-12.48,3.68-16.96,.25-.8,.66-.94,1.36-.78,.73,.16,1.77,.52,2.43,.94s.75,.74,.53,1.51c-1.02,3.67-2.39,9.17-3.44,13.95,1.23-.38,2.32-.61,3.63-.83,.7-.13,1.1-.04,1.42,.58,.32,.62,.54,1.22,.66,1.86,.2,.7,.18,.89-.67,1.17-1.8,.59-3.66,1.19-5.35,1.87ZM20.02,13.87c-1.11,4.14-2.98,12.96-3.86,17.79-.13,.73-.37,.88-1.07,.75-.69-.13-1.5-.41-2.09-.75-.62-.36-.76-.77-.65-1.73,.43-3.75,2.27-13.61,3.31-17.77,.22-.8,.62-.97,1.36-.81,.73,.16,1.78,.61,2.4,1.01,.69,.46,.78,.74,.6,1.51Zm5.15,3.65c-.7,3.32-1.96,9.65-2.58,13.44-.15,.83-.46,1.02-1.22,.83-.4-.09-.94-.3-1.38-.52-.85-.41-1.03-.94-.86-2.29,.5-4.34,2.39-13.33,3.39-17.29,.22-.77,.52-1.06,1.13-1.11,.87-.08,2.47,.29,3.28,.6,1.05,.42,1.31,.79,1.41,1.82l.13,1.74,.37,4.32,.19,2c1.28-3.37,3.66-8.5,4.85-10.76,.41-.79,.91-1,1.76-.95,.75,.06,2.25,.37,3.5,.88,.71,.29,.88,.73,.68,1.76-.85,4.5-2.82,13.63-3.51,17.72-.11,.53-.35,.81-.7,.85-.45,.04-1.32-.23-1.83-.48-.85-.41-1.12-.84-.94-2.38,.31-2.6,1.24-7.59,2.19-11.71-1.45,3.26-3.78,8.64-5.36,12.6-.24,.61-.41,.82-.77,.85-.39,.04-1.02-.1-1.66-.33-.67-.23-1-.62-1.17-1.68-.31-1.92-.74-7.18-.89-9.9Zm28.16-5.14c.64,4.36-.51,11.56-3.82,15.48-1.11,1.31-2.4,1.75-4,1.71-1.04-.03-2.3-.3-3.2-.81-.69-.39-1.48-1.19-1.86-2.17-1.82-4.48,.22-12.93,4.35-17.05,.86-.86,2.28-1.38,3.32-1.32,1.37,.07,2.81,.52,3.62,1.19,.95,.79,1.4,1.75,1.58,2.97Zm-8.46,6.16c-.85,3.1-1.08,7.25,.16,7.63,1.21,.38,2.78-2.6,3.71-6.56,.72-3.06,1.02-7.54-.04-7.77-1.03-.23-2.98,3.56-3.83,6.7Zm21.36-11.1c.21-.83,.62-1,1.35-.84,.5,.12,1.07,.32,1.51,.54,.75,.38,1.01,.75,.79,1.81-1.02,4.74-2.69,12.64-3.54,17.73-.12,.79-.62,1-1.41,.88-.59-.11-1.33-.33-1.87-.57-.61-.27-.97-.69-1.28-1.54-.77-2.37-1.46-5.55-2.11-9.69-.57,2.62-1.53,7.3-2.39,11.96-.13,.69-.43,.92-1.16,.76-.47-.12-1.07-.35-1.45-.55-.75-.39-.98-.69-.81-2.1,.4-3.35,2.32-12.74,3.47-17.49,.17-.63,.47-.89,.95-.93,.52-.05,1.82,.29,2.8,.68,.78,.32,.97,.66,1.12,1.52,.48,3.01,1.05,6.7,1.66,10.12,.51-3.53,1.59-9.09,2.39-12.29Zm12.37,6.71c.68-.06,1.06,.16,1.3,.72,.29,.62,.43,1.16,.58,1.7,.16,.64-.05,.82-.73,.91-2.28,.34-4.92,.88-7.07,1.54-.6,.19-1,.09-1.41-.49-.41-.55-.72-1.1-.94-1.67-.26-.69-.04-1.1,.59-1.29,1.8-.56,5.09-1.19,7.67-1.43Zm10.73,10.73c-.42,1.05-.99,1.23-2.22,.89-.77-.22-1.71-.59-2.37-.95-.92-.5-1.4-1.43-1.57-2.49-.17-1.15-.33-2.47-.43-3.6-.32-3.77-.53-8.08-.59-12.5,0-.75,.13-1.02,.84-1.09,1.48-.14,3.08,.2,3.23,1.84,.26,2.8,.42,8.28,.78,13.16,1.65-4.61,3.75-10.98,5.37-15.56,.2-.6,.64-.81,1.48-.56,.57,.17,1.25,.53,1.72,.98,.5,.51,.52,1.02,.3,1.83-1.06,3.97-4.6,13.4-6.54,18.04Zm7.6-19.21c-.19-.63-.04-.78,.46-.95,2.16-.85,6.24-1.72,9.2-2.1,.67-.1,1.12,.19,1.34,.78,.29,.66,.43,1.13,.56,1.77,.1,.71-.07,.98-.77,1.11-1.47,.3-3.28,.7-5,1.15-.36,1.37-.8,2.94-1.23,4.57,.79-.2,1.59-.34,2.46-.46,.71-.1,1.11,.03,1.39,.62,.29,.62,.5,1.19,.63,1.83,.16,.7-.01,.91-.71,1.14-1.61,.48-3.42,1-4.99,1.57-.26,1.03-.52,2.06-.72,3.03,1.3-.38,2.44-.65,3.82-.88,.7-.13,1.14,0,1.42,.58,.32,.65,.54,1.22,.66,1.86,.16,.7,.02,.94-.67,1.17-1.8,.59-3.82,1.24-5.51,1.88-.94,.35-1.44,.26-2.06-.16-.45-.31-.91-.69-1.42-1.27-.4-.45-.69-1.14-.58-2.06,.38-2.93,1.68-8.74,2.71-13.13-.41-.58-.79-1.49-.97-2.05Zm22.81,5.05c-1.83-.09-2.64-1.09-2.74-2.57-.07-1.13,.04-2.73-.46-2.85-1-.23-3.01,3.31-4.21,7.12-1.03,3.25-1.14,7.23,.03,7.64,.97,.33,2.29-1.61,3.17-3.97-1.63,.25-2.48-.48-2.85-2.27-.12-.57,.16-.76,.69-.94,1.07-.39,2.88-.89,3.86-1.11,.92-.22,1.42-.1,1.89,.44,.33,.39,.63,.85,.86,1.22,.43,.74,.44,1.23,.16,2.1-.95,3.08-2.38,5.49-3.98,6.84-1.02,.88-2.22,1.25-3.47,1.14-1.15-.09-2.18-.41-3.14-.94-.72-.42-1.51-1.26-1.87-2.23-1.69-4.52,.86-13.74,5.33-17.73,.93-.84,2.15-1.01,3.06-.97,1.24,.05,2.75,.52,3.63,1.25,.85,.7,1.15,1.55,1.29,2.71,.14,1.19-.02,3.29-.25,4.31-.14,.6-.34,.84-1.03,.81Zm4.96,7.11c-.59,1.39-1.11,2.71-1.56,3.85-.29,.71-.55,.77-1.18,.57-.57-.17-1.15-.45-1.65-.92-.5-.47-.54-.92-.24-1.86,1.68-4.94,5.17-13.2,7.51-17.74,.44-.85,.98-1.33,2.11-1.4,1.32-.09,3.11,.2,4.18,.52,.8,.25,.95,.72,.89,1.54-.2,4.12-.21,11.95-.08,17.96,.04,.74-.14,.96-.85,1.02s-1.56,.02-2.03-.1c-.67-.16-.9-.57-.99-1.53-.1-1.03-.15-2.26-.21-3.65-2.03,.55-4.31,1.15-5.92,1.76Zm5.77-5.74c-.04-2.56-.03-5.23,.04-7.55-1.06,2.24-2.43,5.3-3.77,8.38,1.24-.31,2.51-.62,3.73-.84Z"/>
</svg>